<mxfile host="app.diagrams.net" modified="2020-10-25T14:12:53.231Z" agent="5.0 (Macintosh; Intel Mac OS X 10_15_4) AppleWebKit/537.36 (KHTML, like Gecko) Chrome/86.0.4240.80 Safari/537.36" etag="W-jioyKJoqSNK1Yeu5IJ" version="13.8.2" type="github" pages="2">
  <diagram name="Page-1" id="e7e014a7-5840-1c2e-5031-d8a46d1fe8dd">
    <mxGraphModel dx="1186" dy="684" grid="1" gridSize="10" guides="1" tooltips="1" connect="1" arrows="1" fold="1" page="1" pageScale="1" pageWidth="1169" pageHeight="826" background="#ffffff" math="0" shadow="0">
      <root>
        <mxCell id="0" />
        <mxCell id="1" parent="0" />
        <mxCell id="mbi321F9UauVCYQKYEHj-44" value="消费者" style="shape=umlActor;html=1;verticalLabelPosition=bottom;verticalAlign=top;align=center;" vertex="1" parent="1">
          <mxGeometry x="130" y="210" width="50" height="90" as="geometry" />
        </mxCell>
        <mxCell id="mbi321F9UauVCYQKYEHj-52" value="注册缴费" style="ellipse;whiteSpace=wrap;html=1;" vertex="1" parent="1">
          <mxGeometry x="310" y="200" width="160" height="80" as="geometry" />
        </mxCell>
        <mxCell id="mbi321F9UauVCYQKYEHj-53" value="插卡消费" style="ellipse;whiteSpace=wrap;html=1;" vertex="1" parent="1">
          <mxGeometry x="310" y="300" width="160" height="80" as="geometry" />
        </mxCell>
        <mxCell id="mbi321F9UauVCYQKYEHj-54" value="服务员" style="shape=umlActor;html=1;verticalLabelPosition=bottom;verticalAlign=top;align=center;" vertex="1" parent="1">
          <mxGeometry x="130" y="420" width="50" height="90" as="geometry" />
        </mxCell>
        <mxCell id="mbi321F9UauVCYQKYEHj-59" value="收费" style="ellipse;whiteSpace=wrap;html=1;" vertex="1" parent="1">
          <mxGeometry x="310" y="430" width="160" height="80" as="geometry" />
        </mxCell>
        <mxCell id="mbi321F9UauVCYQKYEHj-61" value="管理员" style="shape=umlActor;html=1;verticalLabelPosition=bottom;verticalAlign=top;align=center;" vertex="1" parent="1">
          <mxGeometry x="130" y="610" width="50" height="90" as="geometry" />
        </mxCell>
        <mxCell id="mbi321F9UauVCYQKYEHj-62" value="查询消费记录" style="ellipse;whiteSpace=wrap;html=1;" vertex="1" parent="1">
          <mxGeometry x="310" y="570" width="160" height="80" as="geometry" />
        </mxCell>
        <mxCell id="mbi321F9UauVCYQKYEHj-63" value="打印消费统计数据" style="ellipse;whiteSpace=wrap;html=1;" vertex="1" parent="1">
          <mxGeometry x="310" y="670" width="160" height="80" as="geometry" />
        </mxCell>
        <mxCell id="mbi321F9UauVCYQKYEHj-66" value="" style="endArrow=classic;html=1;" edge="1" parent="1">
          <mxGeometry width="50" height="50" relative="1" as="geometry">
            <mxPoint x="190" y="260" as="sourcePoint" />
            <mxPoint x="300" y="240" as="targetPoint" />
          </mxGeometry>
        </mxCell>
        <mxCell id="mbi321F9UauVCYQKYEHj-67" value="" style="endArrow=classic;html=1;" edge="1" parent="1">
          <mxGeometry width="50" height="50" relative="1" as="geometry">
            <mxPoint x="200" y="270" as="sourcePoint" />
            <mxPoint x="300" y="330" as="targetPoint" />
          </mxGeometry>
        </mxCell>
        <mxCell id="mbi321F9UauVCYQKYEHj-68" value="" style="endArrow=classic;html=1;" edge="1" parent="1">
          <mxGeometry width="50" height="50" relative="1" as="geometry">
            <mxPoint x="190" y="470" as="sourcePoint" />
            <mxPoint x="290" y="470" as="targetPoint" />
          </mxGeometry>
        </mxCell>
        <mxCell id="mbi321F9UauVCYQKYEHj-69" value="" style="endArrow=classic;html=1;" edge="1" parent="1">
          <mxGeometry width="50" height="50" relative="1" as="geometry">
            <mxPoint x="200" y="640" as="sourcePoint" />
            <mxPoint x="300" y="620" as="targetPoint" />
          </mxGeometry>
        </mxCell>
        <mxCell id="mbi321F9UauVCYQKYEHj-70" value="" style="endArrow=classic;html=1;" edge="1" parent="1">
          <mxGeometry width="50" height="50" relative="1" as="geometry">
            <mxPoint x="210" y="650" as="sourcePoint" />
            <mxPoint x="300" y="710" as="targetPoint" />
          </mxGeometry>
        </mxCell>
      </root>
    </mxGraphModel>
  </diagram>
  <diagram id="J_1kFWb9tIYmEwnA-f3G" name="第 2 页">
    <mxGraphModel dx="1186" dy="684" grid="1" gridSize="10" guides="1" tooltips="1" connect="1" arrows="1" fold="1" page="1" pageScale="1" pageWidth="827" pageHeight="1169" math="0" shadow="0">
      <root>
        <mxCell id="T1qfBSaLfcrHv2AzNTaj-0" />
        <mxCell id="T1qfBSaLfcrHv2AzNTaj-1" parent="T1qfBSaLfcrHv2AzNTaj-0" />
        <mxCell id="T1qfBSaLfcrHv2AzNTaj-4" value="收款机界面" style="shape=module;align=left;spacingLeft=20;align=center;verticalAlign=top;" vertex="1" parent="T1qfBSaLfcrHv2AzNTaj-1">
          <mxGeometry x="280" y="330" width="130" height="50" as="geometry" />
        </mxCell>
        <mxCell id="q3F2MZLkFdo_QGk2gwRi-0" value="管理中心PC界面" style="shape=module;align=left;spacingLeft=20;align=center;verticalAlign=top;" vertex="1" parent="T1qfBSaLfcrHv2AzNTaj-1">
          <mxGeometry x="440" y="330" width="130" height="50" as="geometry" />
        </mxCell>
        <mxCell id="q3F2MZLkFdo_QGk2gwRi-1" value="就餐卡后端服务" style="shape=module;align=left;spacingLeft=20;align=center;verticalAlign=top;" vertex="1" parent="T1qfBSaLfcrHv2AzNTaj-1">
          <mxGeometry x="360" y="190" width="130" height="50" as="geometry" />
        </mxCell>
        <mxCell id="q3F2MZLkFdo_QGk2gwRi-2" value="" style="endArrow=classic;html=1;" edge="1" parent="T1qfBSaLfcrHv2AzNTaj-1">
          <mxGeometry width="50" height="50" relative="1" as="geometry">
            <mxPoint x="360" y="320" as="sourcePoint" />
            <mxPoint x="430" y="250" as="targetPoint" />
          </mxGeometry>
        </mxCell>
        <mxCell id="q3F2MZLkFdo_QGk2gwRi-3" value="" style="endArrow=classic;html=1;" edge="1" parent="T1qfBSaLfcrHv2AzNTaj-1">
          <mxGeometry width="50" height="50" relative="1" as="geometry">
            <mxPoint x="510" y="320" as="sourcePoint" />
            <mxPoint x="450" y="250" as="targetPoint" />
          </mxGeometry>
        </mxCell>
      </root>
    </mxGraphModel>
  </diagram>
</mxfile>
